<?xml version="1.0" encoding="UTF-8"?>
<svg xmlns="http://www.w3.org/2000/svg" viewBox="0 0 512 512">
  <defs>
    <linearGradient id="bg" x1="0%" y1="30%" x2="100%" y2="70%">
      <stop offset="0%" stop-color="#0d47b8"/>
      <stop offset="55%" stop-color="#1373c9"/>
      <stop offset="100%" stop-color="#17a8db"/>
    </linearGradient>
    <linearGradient id="textGrad" x1="0%" y1="0%" x2="0%" y2="100%">
      <stop offset="0%" stop-color="#ffffff"/>
      <stop offset="100%" stop-color="#eaf5ff"/>
    </linearGradient>
  </defs>

  <rect width="512" height="512" rx="112" fill="url(#bg)"/>
  <ellipse cx="180" cy="160" rx="180" ry="140" fill="rgba(255,255,255,0.10)" opacity="0.7"/>

  <g fill="url(#textGrad)">
    <rect x="72" y="170" width="52" height="200"/>
    <polygon points="124,262 216,170 272,170 152,282"/>
    <polygon points="124,262 216,370 272,370 152,258"/>

    <path d="M 290 370 L 340 170 L 378 170 L 428 370 L 386 370 L 375 335 L 343 335 L 332 370 Z"/>
    <rect x="348" y="273" width="22" height="30"/>

    <rect x="446" y="170" width="52" height="200"/>
  </g>

  <circle cx="472" cy="140" r="28" fill="#3fd0f5" stroke="rgba(255,255,255,0.5)" stroke-width="2"/>

  <text x="256" y="420"
        font-family="Arial, Helvetica, sans-serif"
        font-size="30"
        font-weight="500"
        fill="rgba(255,255,255,0.9)"
        text-anchor="middle"
        letter-spacing="4">SMART COOKING</text>

  <line x1="90" y1="410" x2="150" y2="410" stroke="rgba(255,255,255,0.4)" stroke-width="2"/>
  <line x1="362" y1="410" x2="422" y2="410" stroke="rgba(255,255,255,0.4)" stroke-width="2"/>
</svg>